<svg width="42" height="42" viewBox="0 0 42 42" fill="none" xmlns="http://www.w3.org/2000/svg">
<path d="M34.125 15.75H32.8125V11.4844C32.8125 5.18437 27.4969 0 21 0C14.5031 0 9.1875 5.18437 9.1875 11.4844V15.75H7.875C6.43125 15.75 5.25 16.9312 5.25 18.375V39.375C5.25 40.8188 6.43125 42 7.875 42H34.125C35.5688 42 36.75 40.8188 36.75 39.375V18.375C36.75 16.9312 35.5688 15.75 34.125 15.75ZM11.8125 11.4844C11.8125 6.62812 15.9469 2.625 21 2.625C26.0531 2.625 30.1875 6.62812 30.1875 11.4844V15.75H11.8125V11.4844ZM7.875 39.375V18.375H34.125V39.375H7.875Z" fill="white"/>
<path d="M21 24.2812C18.4406 24.2812 16.4062 26.3156 16.4062 28.875C16.4062 30.975 17.7844 32.6813 19.6875 33.2719V36.0938H22.3125V33.2719C24.2156 32.6813 25.5938 30.975 25.5938 28.875C25.5938 26.3156 23.5594 24.2812 21 24.2812ZM21 30.8438C19.8844 30.8438 19.0312 29.9906 19.0312 28.875C19.0312 27.7594 19.8844 26.9062 21 26.9062C22.1156 26.9062 22.9688 27.7594 22.9688 28.875C22.9688 29.9906 22.1156 30.8438 21 30.8438Z" fill="white"/>
</svg>
